<mxfile host="Electron" modified="2023-12-06T13:47:16.516Z" agent="Mozilla/5.0 (X11; Linux x86_64) AppleWebKit/537.36 (KHTML, like Gecko) draw.io/22.1.2 Chrome/114.0.5735.289 Electron/25.9.4 Safari/537.36" etag="8AT1SNmtlXxpC6rCHoyV" version="22.1.2" type="device" pages="2">
  <diagram name="V1" id="lf9sXwPOh6Lc7acTnfOK">
    <mxGraphModel dx="1474" dy="1198" grid="1" gridSize="10" guides="1" tooltips="1" connect="1" arrows="1" fold="1" page="1" pageScale="1" pageWidth="1169" pageHeight="827" math="0" shadow="0">
      <root>
        <mxCell id="0" />
        <mxCell id="1" parent="0" />
        <mxCell id="DlWhUFJur6gLoZN-VriO-9" value="" style="rounded=1;whiteSpace=wrap;html=1;fillColor=none;" parent="1" vertex="1">
          <mxGeometry x="20" y="30" width="200" height="120" as="geometry" />
        </mxCell>
        <mxCell id="DlWhUFJur6gLoZN-VriO-11" value="&lt;b&gt;Legend&lt;/b&gt;" style="text;html=1;strokeColor=none;fillColor=none;align=center;verticalAlign=middle;whiteSpace=wrap;rounded=1;" parent="1" vertex="1">
          <mxGeometry x="90" y="30" width="60" height="30" as="geometry" />
        </mxCell>
        <mxCell id="DlWhUFJur6gLoZN-VriO-143" value="" style="rounded=1;whiteSpace=wrap;html=1;fillColor=none;arcSize=5;" parent="1" vertex="1">
          <mxGeometry x="770" y="359" width="140" height="110" as="geometry" />
        </mxCell>
        <mxCell id="DlWhUFJur6gLoZN-VriO-144" value="&lt;b&gt;Регистрация и тестирование воркера&lt;/b&gt;" style="text;html=1;strokeColor=none;fillColor=none;align=center;verticalAlign=middle;whiteSpace=wrap;rounded=1;" parent="1" vertex="1">
          <mxGeometry x="780" y="369" width="110" height="50" as="geometry" />
        </mxCell>
        <mxCell id="DlWhUFJur6gLoZN-VriO-161" style="edgeStyle=orthogonalEdgeStyle;rounded=0;orthogonalLoop=1;jettySize=auto;html=1;exitX=1;exitY=0.75;exitDx=0;exitDy=0;strokeWidth=3;strokeColor=#FF0000;entryX=0.633;entryY=-0.015;entryDx=0;entryDy=0;entryPerimeter=0;" parent="1" source="DlWhUFJur6gLoZN-VriO-145" target="DlWhUFJur6gLoZN-VriO-157" edge="1">
          <mxGeometry relative="1" as="geometry">
            <mxPoint x="450" y="290" as="targetPoint" />
            <Array as="points">
              <mxPoint x="440" y="120" />
              <mxPoint x="440" y="200" />
              <mxPoint x="602" y="200" />
            </Array>
          </mxGeometry>
        </mxCell>
        <mxCell id="DlWhUFJur6gLoZN-VriO-172" value="Работа над заказом начата" style="edgeLabel;html=1;align=center;verticalAlign=middle;resizable=0;points=[];" parent="DlWhUFJur6gLoZN-VriO-161" vertex="1" connectable="0">
          <mxGeometry x="0.1526" y="-2" relative="1" as="geometry">
            <mxPoint as="offset" />
          </mxGeometry>
        </mxCell>
        <mxCell id="DlWhUFJur6gLoZN-VriO-145" value="" style="rounded=1;whiteSpace=wrap;html=1;fillColor=none;arcSize=5;" parent="1" vertex="1">
          <mxGeometry x="270" y="45" width="130" height="100" as="geometry" />
        </mxCell>
        <mxCell id="DlWhUFJur6gLoZN-VriO-146" value="&lt;b&gt;Жизненный цикл заказа&lt;/b&gt;" style="text;html=1;strokeColor=none;fillColor=none;align=center;verticalAlign=middle;whiteSpace=wrap;rounded=1;" parent="1" vertex="1">
          <mxGeometry x="280" y="55" width="110" height="50" as="geometry" />
        </mxCell>
        <mxCell id="DlWhUFJur6gLoZN-VriO-147" value="" style="rounded=1;whiteSpace=wrap;html=1;fillColor=none;arcSize=5;" parent="1" vertex="1">
          <mxGeometry x="600" y="50" width="130" height="100" as="geometry" />
        </mxCell>
        <mxCell id="DlWhUFJur6gLoZN-VriO-148" value="&lt;b&gt;Отдел контроля качества&lt;/b&gt;" style="text;html=1;strokeColor=none;fillColor=none;align=center;verticalAlign=middle;whiteSpace=wrap;rounded=1;" parent="1" vertex="1">
          <mxGeometry x="610" y="60" width="110" height="50" as="geometry" />
        </mxCell>
        <mxCell id="DlWhUFJur6gLoZN-VriO-179" style="edgeStyle=orthogonalEdgeStyle;rounded=0;orthogonalLoop=1;jettySize=auto;html=1;exitX=1;exitY=0.5;exitDx=0;exitDy=0;entryX=0;entryY=0.5;entryDx=0;entryDy=0;strokeWidth=3;strokeColor=#FF0000;" parent="1" source="DlWhUFJur6gLoZN-VriO-149" target="DlWhUFJur6gLoZN-VriO-151" edge="1">
          <mxGeometry relative="1" as="geometry" />
        </mxCell>
        <mxCell id="DlWhUFJur6gLoZN-VriO-180" value="Воркер подобран" style="edgeLabel;html=1;align=center;verticalAlign=middle;resizable=0;points=[];" parent="DlWhUFJur6gLoZN-VriO-179" vertex="1" connectable="0">
          <mxGeometry x="-0.1224" y="2" relative="1" as="geometry">
            <mxPoint as="offset" />
          </mxGeometry>
        </mxCell>
        <mxCell id="DlWhUFJur6gLoZN-VriO-149" value="" style="rounded=1;whiteSpace=wrap;html=1;fillColor=none;arcSize=5;" parent="1" vertex="1">
          <mxGeometry x="40" y="410" width="130" height="100" as="geometry" />
        </mxCell>
        <mxCell id="DlWhUFJur6gLoZN-VriO-150" value="&lt;b&gt;Система мэтчинга&lt;/b&gt;" style="text;html=1;strokeColor=none;fillColor=none;align=center;verticalAlign=middle;whiteSpace=wrap;rounded=1;strokeWidth=2;" parent="1" vertex="1">
          <mxGeometry x="50" y="414" width="110" height="50" as="geometry" />
        </mxCell>
        <mxCell id="DlWhUFJur6gLoZN-VriO-151" value="" style="rounded=1;whiteSpace=wrap;html=1;fillColor=none;arcSize=5;" parent="1" vertex="1">
          <mxGeometry x="364.83" y="410" width="130" height="100" as="geometry" />
        </mxCell>
        <mxCell id="DlWhUFJur6gLoZN-VriO-152" value="&lt;b&gt;Инвентаризация и склад&lt;/b&gt;" style="text;html=1;strokeColor=none;fillColor=none;align=center;verticalAlign=middle;whiteSpace=wrap;rounded=1;" parent="1" vertex="1">
          <mxGeometry x="374.83" y="420" width="110" height="50" as="geometry" />
        </mxCell>
        <mxCell id="DlWhUFJur6gLoZN-VriO-155" value="" style="rounded=1;whiteSpace=wrap;html=1;fillColor=none;arcSize=5;" parent="1" vertex="1">
          <mxGeometry x="770" y="180" width="130" height="100" as="geometry" />
        </mxCell>
        <mxCell id="DlWhUFJur6gLoZN-VriO-156" value="&lt;b&gt;Выплаты денежных средств&lt;/b&gt;" style="text;html=1;strokeColor=none;fillColor=none;align=center;verticalAlign=middle;whiteSpace=wrap;rounded=1;" parent="1" vertex="1">
          <mxGeometry x="780" y="190" width="110" height="50" as="geometry" />
        </mxCell>
        <mxCell id="DlWhUFJur6gLoZN-VriO-157" value="" style="rounded=1;whiteSpace=wrap;html=1;fillColor=none;arcSize=5;" parent="1" vertex="1">
          <mxGeometry x="520" y="250" width="130" height="100" as="geometry" />
        </mxCell>
        <mxCell id="DlWhUFJur6gLoZN-VriO-158" value="&lt;b&gt;Система ставок&lt;/b&gt;" style="text;html=1;strokeColor=none;fillColor=none;align=center;verticalAlign=middle;whiteSpace=wrap;rounded=1;" parent="1" vertex="1">
          <mxGeometry x="530" y="260" width="110" height="50" as="geometry" />
        </mxCell>
        <mxCell id="DlWhUFJur6gLoZN-VriO-175" value="" style="edgeStyle=orthogonalEdgeStyle;rounded=0;orthogonalLoop=1;jettySize=auto;html=1;strokeColor=#FF0000;strokeWidth=3;entryX=0.809;entryY=-0.022;entryDx=0;entryDy=0;entryPerimeter=0;exitX=0.815;exitY=1.028;exitDx=0;exitDy=0;exitPerimeter=0;" parent="1" source="DlWhUFJur6gLoZN-VriO-159" target="DlWhUFJur6gLoZN-VriO-149" edge="1">
          <mxGeometry relative="1" as="geometry" />
        </mxCell>
        <mxCell id="DlWhUFJur6gLoZN-VriO-176" value="Заказ создан" style="edgeLabel;html=1;align=center;verticalAlign=middle;resizable=0;points=[];" parent="DlWhUFJur6gLoZN-VriO-175" vertex="1" connectable="0">
          <mxGeometry x="-0.1807" y="3" relative="1" as="geometry">
            <mxPoint as="offset" />
          </mxGeometry>
        </mxCell>
        <mxCell id="DlWhUFJur6gLoZN-VriO-159" value="" style="rounded=1;whiteSpace=wrap;html=1;fillColor=none;arcSize=5;" parent="1" vertex="1">
          <mxGeometry x="40" y="235" width="130" height="100" as="geometry" />
        </mxCell>
        <mxCell id="DlWhUFJur6gLoZN-VriO-160" value="&lt;b&gt;Создание и управление заказом&lt;/b&gt;" style="text;html=1;strokeColor=none;fillColor=none;align=center;verticalAlign=middle;whiteSpace=wrap;rounded=1;" parent="1" vertex="1">
          <mxGeometry x="50" y="245" width="110" height="50" as="geometry" />
        </mxCell>
        <mxCell id="DlWhUFJur6gLoZN-VriO-163" value="" style="endArrow=classic;html=1;rounded=0;strokeWidth=3;strokeColor=#FF0000;" parent="1" edge="1">
          <mxGeometry width="50" height="50" relative="1" as="geometry">
            <mxPoint x="31" y="79.5" as="sourcePoint" />
            <mxPoint x="111" y="79.5" as="targetPoint" />
          </mxGeometry>
        </mxCell>
        <mxCell id="DlWhUFJur6gLoZN-VriO-164" value="" style="endArrow=classic;html=1;rounded=0;strokeWidth=3;strokeColor=#3333FF;" parent="1" edge="1">
          <mxGeometry width="50" height="50" relative="1" as="geometry">
            <mxPoint x="31" y="119.5" as="sourcePoint" />
            <mxPoint x="111" y="119.5" as="targetPoint" />
          </mxGeometry>
        </mxCell>
        <mxCell id="DlWhUFJur6gLoZN-VriO-165" value="- Streaming communication" style="text;html=1;strokeColor=none;fillColor=none;align=center;verticalAlign=middle;whiteSpace=wrap;rounded=0;" parent="1" vertex="1">
          <mxGeometry x="110" y="105" width="100" height="30" as="geometry" />
        </mxCell>
        <mxCell id="DlWhUFJur6gLoZN-VriO-166" value="- Domain event" style="text;html=1;strokeColor=none;fillColor=none;align=center;verticalAlign=middle;whiteSpace=wrap;rounded=0;" parent="1" vertex="1">
          <mxGeometry x="110" y="65" width="100" height="30" as="geometry" />
        </mxCell>
        <mxCell id="DlWhUFJur6gLoZN-VriO-167" style="edgeStyle=orthogonalEdgeStyle;rounded=0;orthogonalLoop=1;jettySize=auto;html=1;exitX=0.25;exitY=1;exitDx=0;exitDy=0;entryX=0.013;entryY=0.902;entryDx=0;entryDy=0;strokeWidth=3;strokeColor=#FF0000;entryPerimeter=0;" parent="1" source="DlWhUFJur6gLoZN-VriO-145" target="DlWhUFJur6gLoZN-VriO-157" edge="1">
          <mxGeometry relative="1" as="geometry">
            <mxPoint x="290" y="222.48000000000002" as="sourcePoint" />
            <mxPoint x="410" y="377.48" as="targetPoint" />
            <Array as="points">
              <mxPoint x="302" y="340" />
            </Array>
          </mxGeometry>
        </mxCell>
        <mxCell id="DlWhUFJur6gLoZN-VriO-169" value="Заказ отменен" style="edgeLabel;html=1;align=center;verticalAlign=middle;resizable=0;points=[];" parent="DlWhUFJur6gLoZN-VriO-167" vertex="1" connectable="0">
          <mxGeometry x="0.3741" y="1" relative="1" as="geometry">
            <mxPoint as="offset" />
          </mxGeometry>
        </mxCell>
        <mxCell id="DlWhUFJur6gLoZN-VriO-170" style="edgeStyle=orthogonalEdgeStyle;rounded=0;orthogonalLoop=1;jettySize=auto;html=1;exitX=0.25;exitY=1;exitDx=0;exitDy=0;entryX=-0.014;entryY=0.592;entryDx=0;entryDy=0;strokeWidth=3;strokeColor=#FF0000;entryPerimeter=0;" parent="1" target="DlWhUFJur6gLoZN-VriO-157" edge="1">
          <mxGeometry relative="1" as="geometry">
            <mxPoint x="330.52" y="145" as="sourcePoint" />
            <mxPoint x="549.52" y="340" as="targetPoint" />
            <Array as="points">
              <mxPoint x="330" y="309" />
            </Array>
          </mxGeometry>
        </mxCell>
        <mxCell id="DlWhUFJur6gLoZN-VriO-171" value="Заказ провален" style="edgeLabel;html=1;align=center;verticalAlign=middle;resizable=0;points=[];" parent="DlWhUFJur6gLoZN-VriO-170" vertex="1" connectable="0">
          <mxGeometry x="0.3741" y="1" relative="1" as="geometry">
            <mxPoint as="offset" />
          </mxGeometry>
        </mxCell>
        <mxCell id="DlWhUFJur6gLoZN-VriO-173" style="edgeStyle=orthogonalEdgeStyle;rounded=0;orthogonalLoop=1;jettySize=auto;html=1;exitX=0.25;exitY=1;exitDx=0;exitDy=0;strokeWidth=3;strokeColor=#FF0000;" parent="1" edge="1">
          <mxGeometry relative="1" as="geometry">
            <mxPoint x="360.03999999999996" y="145" as="sourcePoint" />
            <mxPoint x="520" y="280" as="targetPoint" />
            <Array as="points">
              <mxPoint x="360" y="280" />
            </Array>
          </mxGeometry>
        </mxCell>
        <mxCell id="DlWhUFJur6gLoZN-VriO-174" value="Работа над заказом завершена" style="edgeLabel;html=1;align=center;verticalAlign=middle;resizable=0;points=[];" parent="DlWhUFJur6gLoZN-VriO-173" vertex="1" connectable="0">
          <mxGeometry x="0.3741" y="1" relative="1" as="geometry">
            <mxPoint as="offset" />
          </mxGeometry>
        </mxCell>
        <mxCell id="DlWhUFJur6gLoZN-VriO-181" style="edgeStyle=orthogonalEdgeStyle;rounded=0;orthogonalLoop=1;jettySize=auto;html=1;exitX=1;exitY=0.25;exitDx=0;exitDy=0;entryX=-0.024;entryY=0.199;entryDx=0;entryDy=0;entryPerimeter=0;strokeWidth=3;strokeColor=#FF0000;" parent="1" source="DlWhUFJur6gLoZN-VriO-145" target="DlWhUFJur6gLoZN-VriO-147" edge="1">
          <mxGeometry relative="1" as="geometry" />
        </mxCell>
        <mxCell id="DlWhUFJur6gLoZN-VriO-182" value="Заказ отменен" style="edgeLabel;html=1;align=center;verticalAlign=middle;resizable=0;points=[];" parent="DlWhUFJur6gLoZN-VriO-181" vertex="1" connectable="0">
          <mxGeometry x="0.0261" y="-2" relative="1" as="geometry">
            <mxPoint x="1" as="offset" />
          </mxGeometry>
        </mxCell>
        <mxCell id="DlWhUFJur6gLoZN-VriO-183" style="edgeStyle=orthogonalEdgeStyle;rounded=0;orthogonalLoop=1;jettySize=auto;html=1;exitX=1;exitY=0.5;exitDx=0;exitDy=0;entryX=-0.008;entryY=0.447;entryDx=0;entryDy=0;entryPerimeter=0;strokeWidth=3;strokeColor=#FF0000;" parent="1" source="DlWhUFJur6gLoZN-VriO-145" target="DlWhUFJur6gLoZN-VriO-147" edge="1">
          <mxGeometry relative="1" as="geometry" />
        </mxCell>
        <mxCell id="DlWhUFJur6gLoZN-VriO-184" value="Заказ провален" style="edgeLabel;html=1;align=center;verticalAlign=middle;resizable=0;points=[];" parent="DlWhUFJur6gLoZN-VriO-183" vertex="1" connectable="0">
          <mxGeometry x="-0.1391" y="-2" relative="1" as="geometry">
            <mxPoint as="offset" />
          </mxGeometry>
        </mxCell>
        <mxCell id="DlWhUFJur6gLoZN-VriO-185" style="edgeStyle=orthogonalEdgeStyle;rounded=0;orthogonalLoop=1;jettySize=auto;html=1;exitX=0;exitY=0.75;exitDx=0;exitDy=0;entryX=0.5;entryY=0;entryDx=0;entryDy=0;strokeWidth=3;strokeColor=#FF0000;" parent="1" source="DlWhUFJur6gLoZN-VriO-145" target="DlWhUFJur6gLoZN-VriO-159" edge="1">
          <mxGeometry relative="1" as="geometry">
            <Array as="points">
              <mxPoint x="250" y="120" />
              <mxPoint x="250" y="190" />
              <mxPoint x="105" y="190" />
            </Array>
          </mxGeometry>
        </mxCell>
        <mxCell id="DlWhUFJur6gLoZN-VriO-188" value="Заказ провален воркером" style="edgeLabel;html=1;align=center;verticalAlign=middle;resizable=0;points=[];" parent="DlWhUFJur6gLoZN-VriO-185" vertex="1" connectable="0">
          <mxGeometry x="0.1016" y="1" relative="1" as="geometry">
            <mxPoint as="offset" />
          </mxGeometry>
        </mxCell>
        <mxCell id="DlWhUFJur6gLoZN-VriO-189" style="edgeStyle=orthogonalEdgeStyle;rounded=0;orthogonalLoop=1;jettySize=auto;html=1;exitX=1;exitY=0.75;exitDx=0;exitDy=0;entryX=0.367;entryY=1.02;entryDx=0;entryDy=0;entryPerimeter=0;strokeWidth=3;strokeColor=#3333FF;" parent="1" source="DlWhUFJur6gLoZN-VriO-159" target="DlWhUFJur6gLoZN-VriO-157" edge="1">
          <mxGeometry relative="1" as="geometry">
            <Array as="points">
              <mxPoint x="200" y="310" />
              <mxPoint x="200" y="380" />
              <mxPoint x="568" y="380" />
            </Array>
          </mxGeometry>
        </mxCell>
        <mxCell id="DlWhUFJur6gLoZN-VriO-190" value="Order information" style="edgeLabel;html=1;align=center;verticalAlign=middle;resizable=0;points=[];" parent="DlWhUFJur6gLoZN-VriO-189" vertex="1" connectable="0">
          <mxGeometry x="-0.0883" relative="1" as="geometry">
            <mxPoint as="offset" />
          </mxGeometry>
        </mxCell>
        <mxCell id="DlWhUFJur6gLoZN-VriO-191" style="edgeStyle=orthogonalEdgeStyle;rounded=0;orthogonalLoop=1;jettySize=auto;html=1;exitX=1;exitY=0.25;exitDx=0;exitDy=0;entryX=0.129;entryY=1.012;entryDx=0;entryDy=0;entryPerimeter=0;strokeWidth=3;strokeColor=#3333FF;" parent="1" source="DlWhUFJur6gLoZN-VriO-159" target="DlWhUFJur6gLoZN-VriO-145" edge="1">
          <mxGeometry relative="1" as="geometry" />
        </mxCell>
        <mxCell id="DlWhUFJur6gLoZN-VriO-192" value="Order" style="edgeLabel;html=1;align=center;verticalAlign=middle;resizable=0;points=[];" parent="DlWhUFJur6gLoZN-VriO-191" vertex="1" connectable="0">
          <mxGeometry x="-0.5794" y="-2" relative="1" as="geometry">
            <mxPoint as="offset" />
          </mxGeometry>
        </mxCell>
        <mxCell id="DlWhUFJur6gLoZN-VriO-193" style="edgeStyle=orthogonalEdgeStyle;rounded=0;orthogonalLoop=1;jettySize=auto;html=1;exitX=0.25;exitY=1;exitDx=0;exitDy=0;entryX=0.206;entryY=-0.08;entryDx=0;entryDy=0;entryPerimeter=0;strokeWidth=3;strokeColor=#3333FF;" parent="1" source="DlWhUFJur6gLoZN-VriO-159" target="DlWhUFJur6gLoZN-VriO-150" edge="1">
          <mxGeometry relative="1" as="geometry" />
        </mxCell>
        <mxCell id="DlWhUFJur6gLoZN-VriO-194" value="Order" style="edgeLabel;html=1;align=center;verticalAlign=middle;resizable=0;points=[];" parent="DlWhUFJur6gLoZN-VriO-193" vertex="1" connectable="0">
          <mxGeometry x="-0.2594" y="1" relative="1" as="geometry">
            <mxPoint y="2" as="offset" />
          </mxGeometry>
        </mxCell>
        <mxCell id="DlWhUFJur6gLoZN-VriO-195" style="edgeStyle=orthogonalEdgeStyle;rounded=0;orthogonalLoop=1;jettySize=auto;html=1;exitX=0;exitY=0.75;exitDx=0;exitDy=0;entryX=0.668;entryY=1.003;entryDx=0;entryDy=0;entryPerimeter=0;strokeWidth=3;strokeColor=#3333FF;" parent="1" source="DlWhUFJur6gLoZN-VriO-159" target="DlWhUFJur6gLoZN-VriO-147" edge="1">
          <mxGeometry relative="1" as="geometry">
            <Array as="points">
              <mxPoint x="20" y="310" />
              <mxPoint x="20" y="570" />
              <mxPoint x="687" y="570" />
            </Array>
          </mxGeometry>
        </mxCell>
        <mxCell id="DlWhUFJur6gLoZN-VriO-196" value="Order" style="edgeLabel;html=1;align=center;verticalAlign=middle;resizable=0;points=[];" parent="DlWhUFJur6gLoZN-VriO-195" vertex="1" connectable="0">
          <mxGeometry x="-0.1985" y="-2" relative="1" as="geometry">
            <mxPoint as="offset" />
          </mxGeometry>
        </mxCell>
        <mxCell id="DlWhUFJur6gLoZN-VriO-198" style="edgeStyle=orthogonalEdgeStyle;rounded=0;orthogonalLoop=1;jettySize=auto;html=1;exitX=0.75;exitY=0;exitDx=0;exitDy=0;entryX=0.803;entryY=0.987;entryDx=0;entryDy=0;entryPerimeter=0;strokeWidth=3;strokeColor=#3333FF;" parent="1" source="DlWhUFJur6gLoZN-VriO-143" target="DlWhUFJur6gLoZN-VriO-155" edge="1">
          <mxGeometry relative="1" as="geometry" />
        </mxCell>
        <mxCell id="DlWhUFJur6gLoZN-VriO-199" value="Worker" style="edgeLabel;html=1;align=center;verticalAlign=middle;resizable=0;points=[];" parent="DlWhUFJur6gLoZN-VriO-198" vertex="1" connectable="0">
          <mxGeometry x="0.0529" y="-1" relative="1" as="geometry">
            <mxPoint as="offset" />
          </mxGeometry>
        </mxCell>
      </root>
    </mxGraphModel>
  </diagram>
  <diagram id="RMchLA-ZJIxRaZe8HOx1" name="V2-06-12-23">
    <mxGraphModel dx="997" dy="826" grid="1" gridSize="10" guides="1" tooltips="1" connect="1" arrows="1" fold="1" page="1" pageScale="1" pageWidth="3300" pageHeight="2339" math="0" shadow="0">
      <root>
        <mxCell id="0" />
        <mxCell id="1" parent="0" />
        <mxCell id="eUnyR3w04niKWoMyWiyN-1" value="" style="rounded=1;whiteSpace=wrap;html=1;fillColor=#CCCCCC;strokeColor=#666666;fontColor=#333333;" vertex="1" parent="1">
          <mxGeometry x="1392" y="904.5" width="360" height="170" as="geometry" />
        </mxCell>
        <mxCell id="eUnyR3w04niKWoMyWiyN-2" value="" style="rounded=1;whiteSpace=wrap;html=1;fillColor=#d5e8d4;strokeColor=#82b366;" vertex="1" parent="1">
          <mxGeometry x="570" y="500" width="280" height="180" as="geometry" />
        </mxCell>
        <mxCell id="eUnyR3w04niKWoMyWiyN-3" value="" style="rounded=1;whiteSpace=wrap;html=1;fillColor=#d5e8d4;strokeColor=#82b366;" vertex="1" parent="1">
          <mxGeometry x="1381.25" y="80" width="300" height="179.5" as="geometry" />
        </mxCell>
        <mxCell id="eUnyR3w04niKWoMyWiyN-4" value="" style="rounded=1;whiteSpace=wrap;html=1;fillColor=#d5e8d4;strokeColor=#82b366;" vertex="1" parent="1">
          <mxGeometry x="1341.25" y="420" width="320" height="260" as="geometry" />
        </mxCell>
        <mxCell id="eUnyR3w04niKWoMyWiyN-5" value="" style="rounded=1;whiteSpace=wrap;html=1;fillColor=none;" vertex="1" parent="1">
          <mxGeometry x="10" y="10" width="165" height="160" as="geometry" />
        </mxCell>
        <mxCell id="eUnyR3w04niKWoMyWiyN-6" value="&lt;b&gt;Легенда&lt;/b&gt;" style="text;html=1;strokeColor=none;fillColor=none;align=center;verticalAlign=middle;whiteSpace=wrap;rounded=0;" vertex="1" parent="1">
          <mxGeometry x="47.5" y="10" width="90" height="30" as="geometry" />
        </mxCell>
        <mxCell id="eUnyR3w04niKWoMyWiyN-9" value="- sync communication" style="text;html=1;strokeColor=none;fillColor=none;align=center;verticalAlign=middle;whiteSpace=wrap;rounded=0;" vertex="1" parent="1">
          <mxGeometry x="55" y="40" width="105" height="30" as="geometry" />
        </mxCell>
        <mxCell id="eUnyR3w04niKWoMyWiyN-10" value="" style="endArrow=classic;html=1;rounded=0;" edge="1" parent="1">
          <mxGeometry width="50" height="50" relative="1" as="geometry">
            <mxPoint x="25" y="55" as="sourcePoint" />
            <mxPoint x="55" y="55" as="targetPoint" />
          </mxGeometry>
        </mxCell>
        <mxCell id="eUnyR3w04niKWoMyWiyN-11" value="" style="rounded=1;whiteSpace=wrap;html=1;fillColor=#d5e8d4;strokeColor=#82b366;" vertex="1" parent="1">
          <mxGeometry x="276.25" y="87.25" width="318.75" height="160" as="geometry" />
        </mxCell>
        <mxCell id="eUnyR3w04niKWoMyWiyN-73" style="edgeStyle=orthogonalEdgeStyle;orthogonalLoop=1;jettySize=auto;html=1;exitX=1;exitY=0.25;exitDx=0;exitDy=0;curved=1;dashed=1;dashPattern=8 8;strokeColor=#FF0000;strokeWidth=2;" edge="1" parent="1" source="eUnyR3w04niKWoMyWiyN-12" target="eUnyR3w04niKWoMyWiyN-31">
          <mxGeometry relative="1" as="geometry" />
        </mxCell>
        <mxCell id="eUnyR3w04niKWoMyWiyN-74" value="Стриминг событие с информацией об Order объекте" style="edgeLabel;html=1;align=center;verticalAlign=middle;resizable=0;points=[];rotation=75;" vertex="1" connectable="0" parent="eUnyR3w04niKWoMyWiyN-73">
          <mxGeometry x="-0.0599" y="-35" relative="1" as="geometry">
            <mxPoint x="29" y="38" as="offset" />
          </mxGeometry>
        </mxCell>
        <mxCell id="eUnyR3w04niKWoMyWiyN-12" value="" style="rounded=1;whiteSpace=wrap;html=1;" vertex="1" parent="1">
          <mxGeometry x="305" y="137.25" width="260" height="70" as="geometry" />
        </mxCell>
        <mxCell id="eUnyR3w04niKWoMyWiyN-14" value="Мэтчинг сотрудника и клиента" style="text;html=1;strokeColor=none;fillColor=none;align=center;verticalAlign=middle;whiteSpace=wrap;rounded=0;" vertex="1" parent="1">
          <mxGeometry x="341.25" y="157.75" width="187.5" height="29.5" as="geometry" />
        </mxCell>
        <mxCell id="eUnyR3w04niKWoMyWiyN-15" value="" style="rounded=1;whiteSpace=wrap;html=1;fillColor=#d5e8d4;strokeColor=#82b366;" vertex="1" parent="1">
          <mxGeometry x="47.5" y="530" width="250" height="170" as="geometry" />
        </mxCell>
        <mxCell id="eUnyR3w04niKWoMyWiyN-16" style="edgeStyle=orthogonalEdgeStyle;orthogonalLoop=1;jettySize=auto;html=1;exitX=1;exitY=0.25;exitDx=0;exitDy=0;curved=1;dashed=1;dashPattern=8 8;strokeColor=#3333FF;" edge="1" parent="1" source="eUnyR3w04niKWoMyWiyN-17" target="eUnyR3w04niKWoMyWiyN-31">
          <mxGeometry relative="1" as="geometry">
            <mxPoint x="397.5" y="612.75" as="sourcePoint" />
          </mxGeometry>
        </mxCell>
        <mxCell id="eUnyR3w04niKWoMyWiyN-77" value="Бизнес событие о появлении нового сотрудника" style="edgeLabel;html=1;align=center;verticalAlign=middle;resizable=0;points=[];" vertex="1" connectable="0" parent="eUnyR3w04niKWoMyWiyN-16">
          <mxGeometry x="-0.24" y="-1" relative="1" as="geometry">
            <mxPoint x="37" y="9" as="offset" />
          </mxGeometry>
        </mxCell>
        <mxCell id="eUnyR3w04niKWoMyWiyN-71" style="edgeStyle=orthogonalEdgeStyle;orthogonalLoop=1;jettySize=auto;html=1;exitX=0.25;exitY=0;exitDx=0;exitDy=0;entryX=0;entryY=0.5;entryDx=0;entryDy=0;curved=1;dashed=1;dashPattern=8 8;strokeColor=#FF0000;strokeWidth=2;" edge="1" parent="1" source="eUnyR3w04niKWoMyWiyN-17" target="eUnyR3w04niKWoMyWiyN-12">
          <mxGeometry relative="1" as="geometry" />
        </mxCell>
        <mxCell id="eUnyR3w04niKWoMyWiyN-72" value="Стриминг событие с информацией об Worker объекте" style="edgeLabel;html=1;align=center;verticalAlign=middle;resizable=0;points=[];rotation=-60;" vertex="1" connectable="0" parent="eUnyR3w04niKWoMyWiyN-71">
          <mxGeometry x="-0.1995" y="-23" relative="1" as="geometry">
            <mxPoint x="16" y="-33" as="offset" />
          </mxGeometry>
        </mxCell>
        <mxCell id="eUnyR3w04niKWoMyWiyN-17" value="" style="rounded=1;whiteSpace=wrap;html=1;" vertex="1" parent="1">
          <mxGeometry x="72.5" y="579.5" width="195" height="80.5" as="geometry" />
        </mxCell>
        <mxCell id="eUnyR3w04niKWoMyWiyN-18" value="Отсев лучших кандидатов" style="text;html=1;strokeColor=none;fillColor=none;align=center;verticalAlign=middle;whiteSpace=wrap;rounded=0;" vertex="1" parent="1">
          <mxGeometry x="81.25" y="600" width="177.5" height="41.75" as="geometry" />
        </mxCell>
        <mxCell id="eUnyR3w04niKWoMyWiyN-19" value="" style="rounded=1;whiteSpace=wrap;html=1;fillColor=#d5e8d4;strokeColor=#82b366;" vertex="1" parent="1">
          <mxGeometry x="201.25" y="1025.5" width="280" height="159" as="geometry" />
        </mxCell>
        <mxCell id="eUnyR3w04niKWoMyWiyN-20" value="" style="rounded=1;whiteSpace=wrap;html=1;" vertex="1" parent="1">
          <mxGeometry x="228.75" y="1074.5" width="230" height="79" as="geometry" />
        </mxCell>
        <mxCell id="eUnyR3w04niKWoMyWiyN-21" value="Тотализатор для менеджеров" style="text;html=1;strokeColor=none;fillColor=none;align=center;verticalAlign=middle;whiteSpace=wrap;rounded=0;" vertex="1" parent="1">
          <mxGeometry x="255" y="1097.75" width="175" height="32.5" as="geometry" />
        </mxCell>
        <mxCell id="eUnyR3w04niKWoMyWiyN-22" style="edgeStyle=orthogonalEdgeStyle;orthogonalLoop=1;jettySize=auto;html=1;entryX=0;entryY=0.5;entryDx=0;entryDy=0;exitX=1;exitY=0.5;exitDx=0;exitDy=0;curved=1;strokeWidth=3;" edge="1" parent="1" source="eUnyR3w04niKWoMyWiyN-24" target="eUnyR3w04niKWoMyWiyN-32">
          <mxGeometry relative="1" as="geometry" />
        </mxCell>
        <mxCell id="eUnyR3w04niKWoMyWiyN-23" value="" style="rounded=1;whiteSpace=wrap;html=1;fillColor=#d5e8d4;strokeColor=#82b366;" vertex="1" parent="1">
          <mxGeometry x="1040" y="913.5" width="281" height="149" as="geometry" />
        </mxCell>
        <mxCell id="eUnyR3w04niKWoMyWiyN-24" value="" style="rounded=1;whiteSpace=wrap;html=1;" vertex="1" parent="1">
          <mxGeometry x="1061" y="956.8699999999999" width="233.5" height="72.25" as="geometry" />
        </mxCell>
        <mxCell id="eUnyR3w04niKWoMyWiyN-25" value="Сборка расходников для заказа" style="text;html=1;strokeColor=none;fillColor=none;align=center;verticalAlign=middle;whiteSpace=wrap;rounded=0;" vertex="1" parent="1">
          <mxGeometry x="1076" y="980.3699999999999" width="215" height="24.5" as="geometry" />
        </mxCell>
        <mxCell id="eUnyR3w04niKWoMyWiyN-26" style="edgeStyle=orthogonalEdgeStyle;orthogonalLoop=1;jettySize=auto;html=1;exitX=0.707;exitY=0.004;exitDx=0;exitDy=0;curved=1;entryX=0;entryY=0.5;entryDx=0;entryDy=0;exitPerimeter=0;dashed=1;dashPattern=8 8;strokeColor=#3333FF;strokeWidth=2;" edge="1" parent="1" source="eUnyR3w04niKWoMyWiyN-31" target="eUnyR3w04niKWoMyWiyN-34">
          <mxGeometry relative="1" as="geometry" />
        </mxCell>
        <mxCell id="eUnyR3w04niKWoMyWiyN-66" value="Бизнес событие о провале или отмене заказа" style="edgeLabel;html=1;align=center;verticalAlign=middle;resizable=0;points=[];rotation=-15;" vertex="1" connectable="0" parent="eUnyR3w04niKWoMyWiyN-26">
          <mxGeometry x="-0.3391" y="-57" relative="1" as="geometry">
            <mxPoint x="230" y="12" as="offset" />
          </mxGeometry>
        </mxCell>
        <mxCell id="eUnyR3w04niKWoMyWiyN-27" style="edgeStyle=orthogonalEdgeStyle;orthogonalLoop=1;jettySize=auto;html=1;exitX=1;exitY=0.25;exitDx=0;exitDy=0;entryX=0;entryY=0.25;entryDx=0;entryDy=0;curved=1;dashed=1;dashPattern=8 8;strokeColor=#FF0000;strokeWidth=2;" edge="1" parent="1" source="eUnyR3w04niKWoMyWiyN-31" target="eUnyR3w04niKWoMyWiyN-37">
          <mxGeometry relative="1" as="geometry" />
        </mxCell>
        <mxCell id="eUnyR3w04niKWoMyWiyN-69" value="Стриминг событие с информацией об Order объектах" style="edgeLabel;html=1;align=center;verticalAlign=middle;resizable=0;points=[];rotation=-15;" vertex="1" connectable="0" parent="eUnyR3w04niKWoMyWiyN-27">
          <mxGeometry x="0.0724" y="-12" relative="1" as="geometry">
            <mxPoint as="offset" />
          </mxGeometry>
        </mxCell>
        <mxCell id="eUnyR3w04niKWoMyWiyN-28" style="edgeStyle=orthogonalEdgeStyle;orthogonalLoop=1;jettySize=auto;html=1;exitX=1;exitY=0.5;exitDx=0;exitDy=0;entryX=0;entryY=0.5;entryDx=0;entryDy=0;curved=1;dashed=1;dashPattern=8 8;strokeColor=#FF0000;strokeWidth=2;" edge="1" parent="1" source="eUnyR3w04niKWoMyWiyN-31" target="eUnyR3w04niKWoMyWiyN-39">
          <mxGeometry relative="1" as="geometry" />
        </mxCell>
        <mxCell id="eUnyR3w04niKWoMyWiyN-70" value="Стриминг событие с информацией об Order объектах" style="edgeLabel;html=1;align=center;verticalAlign=middle;resizable=0;points=[];" vertex="1" connectable="0" parent="eUnyR3w04niKWoMyWiyN-28">
          <mxGeometry x="-0.3389" y="4" relative="1" as="geometry">
            <mxPoint x="87" y="29" as="offset" />
          </mxGeometry>
        </mxCell>
        <mxCell id="eUnyR3w04niKWoMyWiyN-29" style="edgeStyle=orthogonalEdgeStyle;orthogonalLoop=1;jettySize=auto;html=1;exitX=0.25;exitY=1;exitDx=0;exitDy=0;entryX=0.25;entryY=0;entryDx=0;entryDy=0;curved=1;dashed=1;dashPattern=8 8;strokeColor=#3333FF;strokeWidth=2;" edge="1" parent="1" source="eUnyR3w04niKWoMyWiyN-31" target="eUnyR3w04niKWoMyWiyN-20">
          <mxGeometry relative="1" as="geometry" />
        </mxCell>
        <mxCell id="eUnyR3w04niKWoMyWiyN-65" value="Бизнес событие о появлении нового заказа или завершении работы над заказом" style="edgeLabel;html=1;align=center;verticalAlign=middle;resizable=0;points=[];rotation=-30;" vertex="1" connectable="0" parent="eUnyR3w04niKWoMyWiyN-29">
          <mxGeometry x="-0.0651" y="-1" relative="1" as="geometry">
            <mxPoint x="-38" y="-24" as="offset" />
          </mxGeometry>
        </mxCell>
        <mxCell id="eUnyR3w04niKWoMyWiyN-30" style="edgeStyle=orthogonalEdgeStyle;orthogonalLoop=1;jettySize=auto;html=1;exitX=0.75;exitY=1;exitDx=0;exitDy=0;entryX=0.75;entryY=0;entryDx=0;entryDy=0;curved=1;dashed=1;dashPattern=8 8;strokeColor=#3333FF;strokeWidth=2;" edge="1" parent="1" source="eUnyR3w04niKWoMyWiyN-31" target="eUnyR3w04niKWoMyWiyN-24">
          <mxGeometry relative="1" as="geometry" />
        </mxCell>
        <mxCell id="eUnyR3w04niKWoMyWiyN-75" value="Бизнес событие о том, сотрудник подобран под заказ" style="edgeLabel;html=1;align=center;verticalAlign=middle;resizable=0;points=[];rotation=1;" vertex="1" connectable="0" parent="eUnyR3w04niKWoMyWiyN-30">
          <mxGeometry x="-0.3705" y="2" relative="1" as="geometry">
            <mxPoint x="148" y="6" as="offset" />
          </mxGeometry>
        </mxCell>
        <mxCell id="eUnyR3w04niKWoMyWiyN-67" style="edgeStyle=orthogonalEdgeStyle;orthogonalLoop=1;jettySize=auto;html=1;exitX=1;exitY=0;exitDx=0;exitDy=0;entryX=0;entryY=0.75;entryDx=0;entryDy=0;curved=1;dashed=1;dashPattern=8 8;strokeColor=#FF0000;strokeWidth=2;" edge="1" parent="1" source="eUnyR3w04niKWoMyWiyN-31" target="eUnyR3w04niKWoMyWiyN-34">
          <mxGeometry relative="1" as="geometry" />
        </mxCell>
        <mxCell id="eUnyR3w04niKWoMyWiyN-68" value="Стриминг событие об Order объекте (и связанных с ним Client и Worker)" style="edgeLabel;html=1;align=center;verticalAlign=middle;resizable=0;points=[];rotation=-15;" vertex="1" connectable="0" parent="eUnyR3w04niKWoMyWiyN-67">
          <mxGeometry x="0.3711" y="-84" relative="1" as="geometry">
            <mxPoint x="-10" y="-21" as="offset" />
          </mxGeometry>
        </mxCell>
        <mxCell id="eUnyR3w04niKWoMyWiyN-78" style="edgeStyle=orthogonalEdgeStyle;orthogonalLoop=1;jettySize=auto;html=1;exitX=0.5;exitY=1;exitDx=0;exitDy=0;curved=1;dashed=1;dashPattern=8 8;strokeColor=#FF0000;strokeWidth=2;" edge="1" parent="1" source="eUnyR3w04niKWoMyWiyN-31" target="eUnyR3w04niKWoMyWiyN-20">
          <mxGeometry relative="1" as="geometry">
            <Array as="points">
              <mxPoint x="730" y="635" />
              <mxPoint x="730" y="940" />
              <mxPoint x="344" y="940" />
            </Array>
          </mxGeometry>
        </mxCell>
        <mxCell id="eUnyR3w04niKWoMyWiyN-79" value="Стриминг событие с информацией об Order объекте" style="edgeLabel;html=1;align=center;verticalAlign=middle;resizable=0;points=[];" vertex="1" connectable="0" parent="eUnyR3w04niKWoMyWiyN-78">
          <mxGeometry x="0.3623" y="5" relative="1" as="geometry">
            <mxPoint x="41" as="offset" />
          </mxGeometry>
        </mxCell>
        <mxCell id="eUnyR3w04niKWoMyWiyN-31" value="" style="rounded=1;whiteSpace=wrap;html=1;" vertex="1" parent="1">
          <mxGeometry x="601.25" y="545" width="215" height="90" as="geometry" />
        </mxCell>
        <mxCell id="eUnyR3w04niKWoMyWiyN-32" value="" style="rounded=1;whiteSpace=wrap;html=1;" vertex="1" parent="1">
          <mxGeometry x="1424.5" y="952.5" width="297.5" height="82" as="geometry" />
        </mxCell>
        <mxCell id="eUnyR3w04niKWoMyWiyN-33" value="Индивидуальная печенька с предсказанием&amp;nbsp;" style="text;html=1;strokeColor=none;fillColor=none;align=center;verticalAlign=middle;whiteSpace=wrap;rounded=0;" vertex="1" parent="1">
          <mxGeometry x="1442" y="977.3699999999999" width="268.75" height="32.25" as="geometry" />
        </mxCell>
        <mxCell id="eUnyR3w04niKWoMyWiyN-34" value="" style="rounded=1;whiteSpace=wrap;html=1;" vertex="1" parent="1">
          <mxGeometry x="1403.75" y="126.75" width="247.5" height="92.75" as="geometry" />
        </mxCell>
        <mxCell id="eUnyR3w04niKWoMyWiyN-35" value="Планирование визитов (переименовать)" style="text;html=1;strokeColor=none;fillColor=none;align=center;verticalAlign=middle;whiteSpace=wrap;rounded=0;" vertex="1" parent="1">
          <mxGeometry x="625" y="571" width="162.5" height="29" as="geometry" />
        </mxCell>
        <mxCell id="eUnyR3w04niKWoMyWiyN-36" value="Контроль качества работы" style="text;html=1;strokeColor=none;fillColor=none;align=center;verticalAlign=middle;whiteSpace=wrap;rounded=0;" vertex="1" parent="1">
          <mxGeometry x="1442.5" y="156.5" width="170" height="30" as="geometry" />
        </mxCell>
        <mxCell id="eUnyR3w04niKWoMyWiyN-37" value="" style="rounded=1;whiteSpace=wrap;html=1;" vertex="1" parent="1">
          <mxGeometry x="1371.25" y="471.75" width="260" height="68.25" as="geometry" />
        </mxCell>
        <mxCell id="eUnyR3w04niKWoMyWiyN-38" value="Расчет и списание средств клиентов" style="text;html=1;strokeColor=none;fillColor=none;align=center;verticalAlign=middle;whiteSpace=wrap;rounded=0;" vertex="1" parent="1">
          <mxGeometry x="1390" y="490.25" width="210" height="31.25" as="geometry" />
        </mxCell>
        <mxCell id="eUnyR3w04niKWoMyWiyN-39" value="" style="rounded=1;whiteSpace=wrap;html=1;" vertex="1" parent="1">
          <mxGeometry x="1371.25" y="570" width="260" height="70" as="geometry" />
        </mxCell>
        <mxCell id="eUnyR3w04niKWoMyWiyN-40" value="Расчет и выплата средств сотрудникам" style="text;html=1;strokeColor=none;fillColor=none;align=center;verticalAlign=middle;whiteSpace=wrap;rounded=0;" vertex="1" parent="1">
          <mxGeometry x="1381.25" y="588.75" width="240" height="31.25" as="geometry" />
        </mxCell>
        <mxCell id="eUnyR3w04niKWoMyWiyN-51" style="edgeStyle=orthogonalEdgeStyle;orthogonalLoop=1;jettySize=auto;html=1;exitX=0.25;exitY=0;exitDx=0;exitDy=0;entryX=0.999;entryY=0.721;entryDx=0;entryDy=0;entryPerimeter=0;curved=1;dashed=1;dashPattern=8 8;strokeColor=#3333FF;strokeWidth=2;" edge="1" parent="1" source="eUnyR3w04niKWoMyWiyN-31" target="eUnyR3w04niKWoMyWiyN-12">
          <mxGeometry relative="1" as="geometry" />
        </mxCell>
        <mxCell id="eUnyR3w04niKWoMyWiyN-76" value="Бизнес событие о появлении нового заказа" style="edgeLabel;html=1;align=center;verticalAlign=middle;resizable=0;points=[];rotation=75;" vertex="1" connectable="0" parent="eUnyR3w04niKWoMyWiyN-51">
          <mxGeometry x="-0.3314" y="7" relative="1" as="geometry">
            <mxPoint y="-46" as="offset" />
          </mxGeometry>
        </mxCell>
        <mxCell id="eUnyR3w04niKWoMyWiyN-60" value="- streaming" style="text;html=1;strokeColor=none;fillColor=none;align=center;verticalAlign=middle;whiteSpace=wrap;rounded=0;" vertex="1" parent="1">
          <mxGeometry x="55" y="80" width="105" height="30" as="geometry" />
        </mxCell>
        <mxCell id="eUnyR3w04niKWoMyWiyN-61" value="" style="endArrow=classic;html=1;rounded=0;dashed=1;dashPattern=8 8;strokeColor=#FF0000;" edge="1" parent="1">
          <mxGeometry width="50" height="50" relative="1" as="geometry">
            <mxPoint x="25" y="95" as="sourcePoint" />
            <mxPoint x="55" y="95" as="targetPoint" />
          </mxGeometry>
        </mxCell>
        <mxCell id="eUnyR3w04niKWoMyWiyN-62" value="- event" style="text;html=1;strokeColor=none;fillColor=none;align=center;verticalAlign=middle;whiteSpace=wrap;rounded=0;" vertex="1" parent="1">
          <mxGeometry x="55" y="117" width="105" height="30" as="geometry" />
        </mxCell>
        <mxCell id="eUnyR3w04niKWoMyWiyN-63" value="" style="endArrow=classic;html=1;rounded=0;dashed=1;dashPattern=8 8;strokeColor=#3333FF;" edge="1" parent="1">
          <mxGeometry width="50" height="50" relative="1" as="geometry">
            <mxPoint x="25" y="132" as="sourcePoint" />
            <mxPoint x="55" y="132" as="targetPoint" />
          </mxGeometry>
        </mxCell>
        <mxCell id="eUnyR3w04niKWoMyWiyN-80" style="edgeStyle=orthogonalEdgeStyle;orthogonalLoop=1;jettySize=auto;html=1;exitX=1;exitY=1;exitDx=0;exitDy=0;entryX=0.904;entryY=-0.005;entryDx=0;entryDy=0;entryPerimeter=0;curved=1;strokeColor=#FF0000;dashed=1;dashPattern=8 8;strokeWidth=2;" edge="1" parent="1" source="eUnyR3w04niKWoMyWiyN-31" target="eUnyR3w04niKWoMyWiyN-24">
          <mxGeometry relative="1" as="geometry">
            <Array as="points">
              <mxPoint x="816" y="750" />
              <mxPoint x="1272" y="750" />
            </Array>
          </mxGeometry>
        </mxCell>
        <mxCell id="eUnyR3w04niKWoMyWiyN-81" value="Стриминг событие с информацией о клиенте (дальше уйдет поставщику печенек)" style="edgeLabel;html=1;align=center;verticalAlign=middle;resizable=0;points=[];" vertex="1" connectable="0" parent="eUnyR3w04niKWoMyWiyN-80">
          <mxGeometry relative="1" as="geometry">
            <mxPoint x="41" as="offset" />
          </mxGeometry>
        </mxCell>
      </root>
    </mxGraphModel>
  </diagram>
</mxfile>
